<mxfile host="app.diagrams.net" agent="Mozilla/5.0 (Windows NT 10.0; Win64; x64) AppleWebKit/537.36 (KHTML, like Gecko) Chrome/134.0.0.0 Safari/537.36" version="26.2.9">
  <diagram name="Page-1" id="58cdce13-f638-feb5-8d6f-7d28b1aa9fa0">
    <mxGraphModel dx="1426" dy="761" grid="1" gridSize="10" guides="1" tooltips="1" connect="1" arrows="1" fold="1" page="1" pageScale="1" pageWidth="1100" pageHeight="850" background="none" math="0" shadow="0">
      <root>
        <mxCell id="0" />
        <mxCell id="1" parent="0" />
        <mxCell id="382b91b5511bd0f7-1" value="" style="ellipse;html=1;shape=startState;fillColor=#000000;strokeColor=#ff0000;rounded=1;shadow=0;comic=0;labelBackgroundColor=none;fontFamily=Verdana;fontSize=12;fontColor=#000000;align=center;direction=south;" parent="1" vertex="1">
          <mxGeometry x="80" y="245" width="30" height="30" as="geometry" />
        </mxCell>
        <mxCell id="2a3bc250acf0617d-9" style="edgeStyle=orthogonalEdgeStyle;html=1;labelBackgroundColor=none;endArrow=open;endSize=8;strokeColor=#ff0000;fontFamily=Verdana;fontSize=12;align=left;" parent="1" source="382b91b5511bd0f7-1" target="-Lwdjivc8dsp_Cb2B-uT-1" edge="1">
          <mxGeometry relative="1" as="geometry">
            <mxPoint x="190" y="260" as="targetPoint" />
          </mxGeometry>
        </mxCell>
        <mxCell id="-Lwdjivc8dsp_Cb2B-uT-1" value="" style="rhombus;whiteSpace=wrap;html=1;" vertex="1" parent="1">
          <mxGeometry x="160" y="245" width="30" height="30" as="geometry" />
        </mxCell>
        <mxCell id="-Lwdjivc8dsp_Cb2B-uT-32" style="edgeStyle=orthogonalEdgeStyle;rounded=0;orthogonalLoop=1;jettySize=auto;html=1;exitX=1;exitY=0.5;exitDx=0;exitDy=0;endArrow=open;endFill=0;strokeColor=light-dark(#000000,#FF6666);entryX=0.5;entryY=1;entryDx=0;entryDy=0;" edge="1" parent="1" source="-Lwdjivc8dsp_Cb2B-uT-2" target="-Lwdjivc8dsp_Cb2B-uT-4">
          <mxGeometry relative="1" as="geometry">
            <mxPoint x="420" y="250" as="targetPoint" />
          </mxGeometry>
        </mxCell>
        <mxCell id="-Lwdjivc8dsp_Cb2B-uT-2" value="&lt;strong data-sourcepos=&quot;3:1-3:9&quot;&gt;Event list&lt;/strong&gt;" style="html=1;whiteSpace=wrap;" vertex="1" parent="1">
          <mxGeometry x="290" y="245" width="100" height="40" as="geometry" />
        </mxCell>
        <mxCell id="-Lwdjivc8dsp_Cb2B-uT-33" style="edgeStyle=orthogonalEdgeStyle;rounded=0;orthogonalLoop=1;jettySize=auto;html=1;exitX=1;exitY=0.5;exitDx=0;exitDy=0;entryX=0.5;entryY=0;entryDx=0;entryDy=0;endArrow=open;endFill=0;strokeColor=light-dark(#000000,#FF6666);" edge="1" parent="1" source="-Lwdjivc8dsp_Cb2B-uT-3" target="-Lwdjivc8dsp_Cb2B-uT-4">
          <mxGeometry relative="1" as="geometry" />
        </mxCell>
        <mxCell id="-Lwdjivc8dsp_Cb2B-uT-3" value="&lt;strong data-sourcepos=&quot;3:1-3:9&quot;&gt;Search event&lt;/strong&gt;" style="html=1;whiteSpace=wrap;" vertex="1" parent="1">
          <mxGeometry x="290" y="140" width="100" height="40" as="geometry" />
        </mxCell>
        <mxCell id="-Lwdjivc8dsp_Cb2B-uT-34" style="edgeStyle=orthogonalEdgeStyle;rounded=0;orthogonalLoop=1;jettySize=auto;html=1;endArrow=open;endFill=0;strokeColor=light-dark(#000000,#FF6666);" edge="1" parent="1" source="-Lwdjivc8dsp_Cb2B-uT-4" target="-Lwdjivc8dsp_Cb2B-uT-5">
          <mxGeometry relative="1" as="geometry" />
        </mxCell>
        <mxCell id="-Lwdjivc8dsp_Cb2B-uT-4" value="" style="rhombus;whiteSpace=wrap;html=1;" vertex="1" parent="1">
          <mxGeometry x="410" y="190" width="30" height="30" as="geometry" />
        </mxCell>
        <mxCell id="-Lwdjivc8dsp_Cb2B-uT-5" value="&lt;strong data-sourcepos=&quot;3:1-3:9&quot;&gt;Viev Event&lt;/strong&gt;" style="html=1;whiteSpace=wrap;" vertex="1" parent="1">
          <mxGeometry x="470" y="185" width="100" height="40" as="geometry" />
        </mxCell>
        <mxCell id="-Lwdjivc8dsp_Cb2B-uT-6" value="&lt;b&gt;Check ticket&lt;/b&gt;" style="html=1;whiteSpace=wrap;" vertex="1" parent="1">
          <mxGeometry x="630" y="185" width="100" height="40" as="geometry" />
        </mxCell>
        <mxCell id="-Lwdjivc8dsp_Cb2B-uT-7" style="edgeStyle=orthogonalEdgeStyle;html=1;labelBackgroundColor=none;endArrow=open;endSize=8;strokeColor=#ff0000;fontFamily=Verdana;fontSize=12;align=left;" edge="1" parent="1" source="-Lwdjivc8dsp_Cb2B-uT-5" target="-Lwdjivc8dsp_Cb2B-uT-6">
          <mxGeometry relative="1" as="geometry">
            <mxPoint x="655" y="274.31" as="sourcePoint" />
            <mxPoint x="705" y="274.31" as="targetPoint" />
          </mxGeometry>
        </mxCell>
        <mxCell id="-Lwdjivc8dsp_Cb2B-uT-9" value="" style="rhombus;whiteSpace=wrap;html=1;" vertex="1" parent="1">
          <mxGeometry x="790" y="190" width="30" height="30" as="geometry" />
        </mxCell>
        <mxCell id="-Lwdjivc8dsp_Cb2B-uT-12" style="edgeStyle=orthogonalEdgeStyle;html=1;labelBackgroundColor=none;endArrow=open;endSize=8;strokeColor=#ff0000;fontFamily=Verdana;fontSize=12;align=left;" edge="1" parent="1" source="-Lwdjivc8dsp_Cb2B-uT-6" target="-Lwdjivc8dsp_Cb2B-uT-9">
          <mxGeometry relative="1" as="geometry">
            <mxPoint x="785" y="245" as="sourcePoint" />
            <mxPoint x="845" y="245" as="targetPoint" />
          </mxGeometry>
        </mxCell>
        <mxCell id="-Lwdjivc8dsp_Cb2B-uT-14" value="&lt;b&gt;Add item to shopping cart&lt;/b&gt;" style="html=1;whiteSpace=wrap;" vertex="1" parent="1">
          <mxGeometry x="870" y="110" width="100" height="40" as="geometry" />
        </mxCell>
        <mxCell id="-Lwdjivc8dsp_Cb2B-uT-15" style="edgeStyle=orthogonalEdgeStyle;html=1;labelBackgroundColor=none;endArrow=open;endSize=8;strokeColor=#ff0000;fontFamily=Verdana;fontSize=12;align=left;exitX=1;exitY=0.5;exitDx=0;exitDy=0;" edge="1" parent="1" source="-Lwdjivc8dsp_Cb2B-uT-9" target="-Lwdjivc8dsp_Cb2B-uT-14">
          <mxGeometry relative="1" as="geometry">
            <mxPoint x="850" y="215" as="sourcePoint" />
            <mxPoint x="880" y="205" as="targetPoint" />
          </mxGeometry>
        </mxCell>
        <mxCell id="-Lwdjivc8dsp_Cb2B-uT-16" value="" style="rhombus;whiteSpace=wrap;html=1;" vertex="1" parent="1">
          <mxGeometry x="790" y="40" width="30" height="30" as="geometry" />
        </mxCell>
        <mxCell id="-Lwdjivc8dsp_Cb2B-uT-18" value="Ticket Selected&amp;nbsp;" style="text;html=1;align=center;verticalAlign=middle;whiteSpace=wrap;rounded=0;fontSize=10;" vertex="1" parent="1">
          <mxGeometry x="850" y="180" width="50" height="20" as="geometry" />
        </mxCell>
        <mxCell id="-Lwdjivc8dsp_Cb2B-uT-19" style="edgeStyle=orthogonalEdgeStyle;html=1;labelBackgroundColor=none;endArrow=open;endSize=8;strokeColor=#ff0000;fontFamily=Verdana;fontSize=12;align=left;exitX=0.5;exitY=0;exitDx=0;exitDy=0;" edge="1" parent="1" source="-Lwdjivc8dsp_Cb2B-uT-9" target="-Lwdjivc8dsp_Cb2B-uT-16">
          <mxGeometry relative="1" as="geometry">
            <mxPoint x="830" y="215" as="sourcePoint" />
            <mxPoint x="930" y="160" as="targetPoint" />
          </mxGeometry>
        </mxCell>
        <mxCell id="-Lwdjivc8dsp_Cb2B-uT-20" value="Skiped" style="text;html=1;align=center;verticalAlign=middle;whiteSpace=wrap;rounded=0;fontSize=10;" vertex="1" parent="1">
          <mxGeometry x="750" y="110" width="50" height="20" as="geometry" />
        </mxCell>
        <mxCell id="-Lwdjivc8dsp_Cb2B-uT-23" style="edgeStyle=orthogonalEdgeStyle;html=1;labelBackgroundColor=none;endArrow=open;endSize=8;strokeColor=#ff0000;fontFamily=Verdana;fontSize=12;align=left;exitX=0;exitY=0.5;exitDx=0;exitDy=0;entryX=0.5;entryY=0;entryDx=0;entryDy=0;" edge="1" parent="1" source="-Lwdjivc8dsp_Cb2B-uT-16" target="-Lwdjivc8dsp_Cb2B-uT-1">
          <mxGeometry relative="1" as="geometry">
            <mxPoint x="470" y="70" as="sourcePoint" />
            <mxPoint x="520" y="70" as="targetPoint" />
          </mxGeometry>
        </mxCell>
        <mxCell id="-Lwdjivc8dsp_Cb2B-uT-25" value="" style="rhombus;whiteSpace=wrap;html=1;" vertex="1" parent="1">
          <mxGeometry x="230" y="195" width="30" height="30" as="geometry" />
        </mxCell>
        <mxCell id="-Lwdjivc8dsp_Cb2B-uT-26" style="edgeStyle=orthogonalEdgeStyle;html=1;labelBackgroundColor=none;endArrow=open;endSize=8;strokeColor=#ff0000;fontFamily=Verdana;fontSize=12;align=left;exitX=1;exitY=0.5;exitDx=0;exitDy=0;entryX=0;entryY=0.5;entryDx=0;entryDy=0;" edge="1" parent="1" source="-Lwdjivc8dsp_Cb2B-uT-1" target="-Lwdjivc8dsp_Cb2B-uT-25">
          <mxGeometry relative="1" as="geometry">
            <mxPoint x="210" y="310" as="sourcePoint" />
            <mxPoint x="260" y="310" as="targetPoint" />
          </mxGeometry>
        </mxCell>
        <mxCell id="-Lwdjivc8dsp_Cb2B-uT-27" style="edgeStyle=orthogonalEdgeStyle;html=1;labelBackgroundColor=none;endArrow=open;endSize=8;strokeColor=#ff0000;fontFamily=Verdana;fontSize=12;align=left;exitX=0.5;exitY=0;exitDx=0;exitDy=0;entryX=0;entryY=0.5;entryDx=0;entryDy=0;" edge="1" parent="1" source="-Lwdjivc8dsp_Cb2B-uT-25" target="-Lwdjivc8dsp_Cb2B-uT-3">
          <mxGeometry relative="1" as="geometry">
            <mxPoint x="210" y="119.25999999999999" as="sourcePoint" />
            <mxPoint x="265.24" y="120.25999999999999" as="targetPoint" />
          </mxGeometry>
        </mxCell>
        <mxCell id="-Lwdjivc8dsp_Cb2B-uT-28" style="edgeStyle=orthogonalEdgeStyle;html=1;labelBackgroundColor=none;endArrow=open;endSize=8;strokeColor=#ff0000;fontFamily=Verdana;fontSize=12;align=left;exitX=0.5;exitY=1;exitDx=0;exitDy=0;entryX=0;entryY=0.5;entryDx=0;entryDy=0;" edge="1" parent="1" source="-Lwdjivc8dsp_Cb2B-uT-25" target="-Lwdjivc8dsp_Cb2B-uT-2">
          <mxGeometry relative="1" as="geometry">
            <mxPoint x="214.52" y="395" as="sourcePoint" />
            <mxPoint x="259.52" y="360" as="targetPoint" />
          </mxGeometry>
        </mxCell>
        <mxCell id="-Lwdjivc8dsp_Cb2B-uT-29" value="search" style="text;html=1;align=center;verticalAlign=middle;whiteSpace=wrap;rounded=0;fontSize=10;" vertex="1" parent="1">
          <mxGeometry x="220" y="140" width="50" height="20" as="geometry" />
        </mxCell>
        <mxCell id="-Lwdjivc8dsp_Cb2B-uT-30" value="browse" style="text;html=1;align=center;verticalAlign=middle;whiteSpace=wrap;rounded=0;fontSize=10;" vertex="1" parent="1">
          <mxGeometry x="230" y="265" width="50" height="20" as="geometry" />
        </mxCell>
        <mxCell id="-Lwdjivc8dsp_Cb2B-uT-35" value="&lt;b&gt;View\update shopping cart&lt;/b&gt;" style="html=1;whiteSpace=wrap;" vertex="1" parent="1">
          <mxGeometry x="320" y="320" width="100" height="40" as="geometry" />
        </mxCell>
        <mxCell id="-Lwdjivc8dsp_Cb2B-uT-36" style="edgeStyle=orthogonalEdgeStyle;html=1;labelBackgroundColor=none;endArrow=open;endSize=8;strokeColor=#ff0000;fontFamily=Verdana;fontSize=12;align=left;entryX=0;entryY=0.5;entryDx=0;entryDy=0;" edge="1" parent="1" source="-Lwdjivc8dsp_Cb2B-uT-1" target="-Lwdjivc8dsp_Cb2B-uT-35">
          <mxGeometry relative="1" as="geometry">
            <mxPoint x="200" y="270" as="sourcePoint" />
            <mxPoint x="240" y="220" as="targetPoint" />
            <Array as="points">
              <mxPoint x="210" y="260" />
              <mxPoint x="210" y="340" />
            </Array>
          </mxGeometry>
        </mxCell>
        <mxCell id="-Lwdjivc8dsp_Cb2B-uT-37" value="Shopping cart" style="text;html=1;align=center;verticalAlign=middle;whiteSpace=wrap;rounded=0;fontSize=9;" vertex="1" parent="1">
          <mxGeometry x="220" y="320" width="50" height="20" as="geometry" />
        </mxCell>
        <mxCell id="-Lwdjivc8dsp_Cb2B-uT-39" value="" style="rhombus;whiteSpace=wrap;html=1;" vertex="1" parent="1">
          <mxGeometry x="470" y="325" width="30" height="30" as="geometry" />
        </mxCell>
        <mxCell id="-Lwdjivc8dsp_Cb2B-uT-40" style="edgeStyle=orthogonalEdgeStyle;html=1;labelBackgroundColor=none;endArrow=open;endSize=8;strokeColor=#ff0000;fontFamily=Verdana;fontSize=12;align=left;entryX=0;entryY=0.5;entryDx=0;entryDy=0;" edge="1" parent="1" source="-Lwdjivc8dsp_Cb2B-uT-35" target="-Lwdjivc8dsp_Cb2B-uT-39">
          <mxGeometry relative="1" as="geometry">
            <mxPoint x="550" y="370" as="sourcePoint" />
            <mxPoint x="610" y="370" as="targetPoint" />
          </mxGeometry>
        </mxCell>
        <mxCell id="-Lwdjivc8dsp_Cb2B-uT-41" style="edgeStyle=orthogonalEdgeStyle;html=1;labelBackgroundColor=none;endArrow=open;endSize=8;strokeColor=#ff0000;fontFamily=Verdana;fontSize=12;align=left;exitX=0.5;exitY=0;exitDx=0;exitDy=0;" edge="1" parent="1" source="-Lwdjivc8dsp_Cb2B-uT-39" target="-Lwdjivc8dsp_Cb2B-uT-6">
          <mxGeometry relative="1" as="geometry">
            <mxPoint x="550" y="325" as="sourcePoint" />
            <mxPoint x="585" y="225.0000000000001" as="targetPoint" />
          </mxGeometry>
        </mxCell>
        <mxCell id="-Lwdjivc8dsp_Cb2B-uT-42" style="edgeStyle=orthogonalEdgeStyle;html=1;labelBackgroundColor=none;endArrow=open;endSize=8;strokeColor=#ff0000;fontFamily=Verdana;fontSize=12;align=left;" edge="1" parent="1" source="-Lwdjivc8dsp_Cb2B-uT-39" target="-Lwdjivc8dsp_Cb2B-uT-43">
          <mxGeometry relative="1" as="geometry">
            <mxPoint x="662.26" y="375" as="sourcePoint" />
            <mxPoint x="560" y="340" as="targetPoint" />
          </mxGeometry>
        </mxCell>
        <mxCell id="-Lwdjivc8dsp_Cb2B-uT-43" value="&lt;strong data-sourcepos=&quot;3:1-3:9&quot;&gt;Remove ticket from shopping cart&lt;/strong&gt;" style="html=1;whiteSpace=wrap;fontSize=10;" vertex="1" parent="1">
          <mxGeometry x="755" y="320" width="100" height="40" as="geometry" />
        </mxCell>
        <mxCell id="-Lwdjivc8dsp_Cb2B-uT-44" value="cancel" style="text;html=1;align=center;verticalAlign=middle;whiteSpace=wrap;rounded=0;fontSize=10;" vertex="1" parent="1">
          <mxGeometry x="510" y="340" width="50" height="20" as="geometry" />
        </mxCell>
        <mxCell id="-Lwdjivc8dsp_Cb2B-uT-46" value="review item" style="text;html=1;align=center;verticalAlign=middle;whiteSpace=wrap;rounded=0;fontSize=10;" vertex="1" parent="1">
          <mxGeometry x="620" y="250" width="50" height="20" as="geometry" />
        </mxCell>
        <mxCell id="-Lwdjivc8dsp_Cb2B-uT-47" style="edgeStyle=orthogonalEdgeStyle;html=1;labelBackgroundColor=none;endArrow=open;endSize=8;strokeColor=#ff0000;fontFamily=Verdana;fontSize=12;align=left;entryX=0.5;entryY=0;entryDx=0;entryDy=0;" edge="1" parent="1" source="-Lwdjivc8dsp_Cb2B-uT-43" target="-Lwdjivc8dsp_Cb2B-uT-16">
          <mxGeometry relative="1" as="geometry">
            <mxPoint x="770" y="420" as="sourcePoint" />
            <mxPoint x="1025" y="420" as="targetPoint" />
            <Array as="points">
              <mxPoint x="1070" y="340" />
              <mxPoint x="1070" y="20" />
              <mxPoint x="805" y="20" />
            </Array>
          </mxGeometry>
        </mxCell>
        <mxCell id="-Lwdjivc8dsp_Cb2B-uT-48" style="edgeStyle=orthogonalEdgeStyle;html=1;labelBackgroundColor=none;endArrow=open;endSize=8;strokeColor=#ff0000;fontFamily=Verdana;fontSize=12;align=left;exitX=0.5;exitY=0;exitDx=0;exitDy=0;entryX=1;entryY=0.5;entryDx=0;entryDy=0;" edge="1" parent="1" source="-Lwdjivc8dsp_Cb2B-uT-14" target="-Lwdjivc8dsp_Cb2B-uT-16">
          <mxGeometry relative="1" as="geometry">
            <mxPoint x="830" y="215" as="sourcePoint" />
            <mxPoint x="930" y="160" as="targetPoint" />
          </mxGeometry>
        </mxCell>
        <mxCell id="-Lwdjivc8dsp_Cb2B-uT-50" value="&lt;b&gt;Login&lt;/b&gt;" style="html=1;whiteSpace=wrap;" vertex="1" parent="1">
          <mxGeometry x="520" y="400" width="100" height="40" as="geometry" />
        </mxCell>
        <mxCell id="-Lwdjivc8dsp_Cb2B-uT-51" value="&lt;b&gt;Registration&lt;/b&gt;" style="html=1;whiteSpace=wrap;" vertex="1" parent="1">
          <mxGeometry x="350" y="400" width="100" height="40" as="geometry" />
        </mxCell>
        <mxCell id="-Lwdjivc8dsp_Cb2B-uT-52" style="edgeStyle=orthogonalEdgeStyle;html=1;labelBackgroundColor=none;endArrow=open;endSize=8;strokeColor=#ff0000;fontFamily=Verdana;fontSize=12;align=left;exitX=0.5;exitY=1;exitDx=0;exitDy=0;" edge="1" parent="1" source="-Lwdjivc8dsp_Cb2B-uT-39" target="-Lwdjivc8dsp_Cb2B-uT-51">
          <mxGeometry relative="1" as="geometry">
            <mxPoint x="430" y="350" as="sourcePoint" />
            <mxPoint x="430" y="380" as="targetPoint" />
          </mxGeometry>
        </mxCell>
        <mxCell id="-Lwdjivc8dsp_Cb2B-uT-53" style="edgeStyle=orthogonalEdgeStyle;html=1;labelBackgroundColor=none;endArrow=open;endSize=8;strokeColor=#ff0000;fontFamily=Verdana;fontSize=12;align=left;exitX=0.5;exitY=1;exitDx=0;exitDy=0;" edge="1" parent="1" source="-Lwdjivc8dsp_Cb2B-uT-39" target="-Lwdjivc8dsp_Cb2B-uT-50">
          <mxGeometry relative="1" as="geometry">
            <mxPoint x="495" y="365" as="sourcePoint" />
            <mxPoint x="440" y="410" as="targetPoint" />
          </mxGeometry>
        </mxCell>
        <mxCell id="-Lwdjivc8dsp_Cb2B-uT-54" value="" style="rhombus;whiteSpace=wrap;html=1;" vertex="1" parent="1">
          <mxGeometry x="470" y="480" width="30" height="30" as="geometry" />
        </mxCell>
        <mxCell id="-Lwdjivc8dsp_Cb2B-uT-58" value="Sucessfull" style="text;html=1;align=center;verticalAlign=middle;whiteSpace=wrap;rounded=0;fontSize=10;" vertex="1" parent="1">
          <mxGeometry x="410" y="470" width="50" height="20" as="geometry" />
        </mxCell>
        <mxCell id="-Lwdjivc8dsp_Cb2B-uT-59" style="edgeStyle=orthogonalEdgeStyle;html=1;labelBackgroundColor=none;endArrow=open;endSize=8;strokeColor=#ff0000;fontFamily=Verdana;fontSize=12;align=left;entryX=0;entryY=0.5;entryDx=0;entryDy=0;exitX=0.5;exitY=1;exitDx=0;exitDy=0;" edge="1" parent="1" source="-Lwdjivc8dsp_Cb2B-uT-51" target="-Lwdjivc8dsp_Cb2B-uT-54">
          <mxGeometry relative="1" as="geometry">
            <mxPoint x="410" y="540" as="sourcePoint" />
            <mxPoint x="460" y="540" as="targetPoint" />
            <Array as="points">
              <mxPoint x="400" y="495" />
            </Array>
          </mxGeometry>
        </mxCell>
        <mxCell id="-Lwdjivc8dsp_Cb2B-uT-60" style="edgeStyle=orthogonalEdgeStyle;html=1;labelBackgroundColor=none;endArrow=open;endSize=8;strokeColor=#ff0000;fontFamily=Verdana;fontSize=12;align=left;entryX=1;entryY=0.5;entryDx=0;entryDy=0;exitX=0.5;exitY=1;exitDx=0;exitDy=0;" edge="1" parent="1" source="-Lwdjivc8dsp_Cb2B-uT-50" target="-Lwdjivc8dsp_Cb2B-uT-54">
          <mxGeometry relative="1" as="geometry">
            <mxPoint x="610" y="530" as="sourcePoint" />
            <mxPoint x="660" y="530" as="targetPoint" />
          </mxGeometry>
        </mxCell>
        <mxCell id="-Lwdjivc8dsp_Cb2B-uT-61" value="Sucessfull" style="text;html=1;align=center;verticalAlign=middle;whiteSpace=wrap;rounded=0;fontSize=10;" vertex="1" parent="1">
          <mxGeometry x="510" y="470" width="50" height="20" as="geometry" />
        </mxCell>
        <mxCell id="-Lwdjivc8dsp_Cb2B-uT-62" style="edgeStyle=orthogonalEdgeStyle;html=1;labelBackgroundColor=none;endArrow=open;endSize=8;strokeColor=#ff0000;fontFamily=Verdana;fontSize=12;align=left;entryX=0;entryY=0.5;entryDx=0;entryDy=0;exitX=0.5;exitY=1;exitDx=0;exitDy=0;" edge="1" parent="1" source="-Lwdjivc8dsp_Cb2B-uT-54" target="-Lwdjivc8dsp_Cb2B-uT-63">
          <mxGeometry relative="1" as="geometry">
            <mxPoint x="550" y="540" as="sourcePoint" />
            <mxPoint x="600" y="540" as="targetPoint" />
            <Array as="points">
              <mxPoint x="485" y="540" />
            </Array>
          </mxGeometry>
        </mxCell>
        <mxCell id="-Lwdjivc8dsp_Cb2B-uT-63" value="&lt;b&gt;Checkout&lt;/b&gt;" style="html=1;whiteSpace=wrap;" vertex="1" parent="1">
          <mxGeometry x="570" y="520" width="100" height="40" as="geometry" />
        </mxCell>
        <mxCell id="-Lwdjivc8dsp_Cb2B-uT-64" style="edgeStyle=orthogonalEdgeStyle;html=1;labelBackgroundColor=none;endArrow=open;endSize=8;strokeColor=#ff0000;fontFamily=Verdana;fontSize=12;align=left;entryX=0.5;entryY=1;entryDx=0;entryDy=0;exitX=0.5;exitY=1;exitDx=0;exitDy=0;" edge="1" parent="1" source="-Lwdjivc8dsp_Cb2B-uT-54" target="-Lwdjivc8dsp_Cb2B-uT-1">
          <mxGeometry relative="1" as="geometry">
            <mxPoint x="465" y="550" as="sourcePoint" />
            <mxPoint x="560" y="580" as="targetPoint" />
            <Array as="points">
              <mxPoint x="485" y="540" />
              <mxPoint x="175" y="540" />
            </Array>
          </mxGeometry>
        </mxCell>
        <mxCell id="-Lwdjivc8dsp_Cb2B-uT-70" value="&lt;b&gt;Payment&lt;/b&gt;" style="html=1;whiteSpace=wrap;" vertex="1" parent="1">
          <mxGeometry x="810" y="520" width="100" height="40" as="geometry" />
        </mxCell>
        <mxCell id="-Lwdjivc8dsp_Cb2B-uT-73" value="" style="rhombus;whiteSpace=wrap;html=1;" vertex="1" parent="1">
          <mxGeometry x="845" y="600" width="30" height="30" as="geometry" />
        </mxCell>
        <mxCell id="-Lwdjivc8dsp_Cb2B-uT-74" style="edgeStyle=orthogonalEdgeStyle;html=1;labelBackgroundColor=none;endArrow=open;endSize=8;strokeColor=#ff0000;fontFamily=Verdana;fontSize=12;align=left;entryX=0.5;entryY=0;entryDx=0;entryDy=0;" edge="1" parent="1" source="-Lwdjivc8dsp_Cb2B-uT-70" target="-Lwdjivc8dsp_Cb2B-uT-73">
          <mxGeometry relative="1" as="geometry">
            <mxPoint x="720" y="680" as="sourcePoint" />
            <mxPoint x="850" y="600" as="targetPoint" />
          </mxGeometry>
        </mxCell>
        <mxCell id="-Lwdjivc8dsp_Cb2B-uT-75" style="edgeStyle=orthogonalEdgeStyle;html=1;labelBackgroundColor=none;endArrow=open;endSize=8;strokeColor=#ff0000;fontFamily=Verdana;fontSize=12;align=left;exitX=0.5;exitY=1;exitDx=0;exitDy=0;" edge="1" parent="1" source="-Lwdjivc8dsp_Cb2B-uT-73" target="-Lwdjivc8dsp_Cb2B-uT-85">
          <mxGeometry relative="1" as="geometry">
            <mxPoint x="900" y="660" as="sourcePoint" />
            <mxPoint x="860" y="655" as="targetPoint" />
          </mxGeometry>
        </mxCell>
        <mxCell id="-Lwdjivc8dsp_Cb2B-uT-76" value="Payment sucessfull" style="text;html=1;align=center;verticalAlign=middle;whiteSpace=wrap;rounded=0;fontSize=10;" vertex="1" parent="1">
          <mxGeometry x="805" y="630" width="50" height="20" as="geometry" />
        </mxCell>
        <mxCell id="-Lwdjivc8dsp_Cb2B-uT-77" style="edgeStyle=orthogonalEdgeStyle;html=1;labelBackgroundColor=none;endArrow=open;endSize=8;strokeColor=#ff0000;fontFamily=Verdana;fontSize=12;align=left;entryX=0.5;entryY=1;entryDx=0;entryDy=0;exitX=0;exitY=0.5;exitDx=0;exitDy=0;" edge="1" parent="1" source="-Lwdjivc8dsp_Cb2B-uT-73" target="-Lwdjivc8dsp_Cb2B-uT-78">
          <mxGeometry relative="1" as="geometry">
            <mxPoint x="810" y="640" as="sourcePoint" />
            <mxPoint x="810" y="678" as="targetPoint" />
          </mxGeometry>
        </mxCell>
        <mxCell id="-Lwdjivc8dsp_Cb2B-uT-78" value="" style="rhombus;whiteSpace=wrap;html=1;" vertex="1" parent="1">
          <mxGeometry x="710" y="525" width="30" height="30" as="geometry" />
        </mxCell>
        <mxCell id="-Lwdjivc8dsp_Cb2B-uT-79" style="edgeStyle=orthogonalEdgeStyle;html=1;labelBackgroundColor=none;endArrow=open;endSize=8;strokeColor=#ff0000;fontFamily=Verdana;fontSize=12;align=left;entryX=0;entryY=0.5;entryDx=0;entryDy=0;exitX=1;exitY=0.5;exitDx=0;exitDy=0;" edge="1" parent="1" source="-Lwdjivc8dsp_Cb2B-uT-63" target="-Lwdjivc8dsp_Cb2B-uT-78">
          <mxGeometry relative="1" as="geometry">
            <mxPoint x="680" y="469.31" as="sourcePoint" />
            <mxPoint x="730" y="469.31" as="targetPoint" />
          </mxGeometry>
        </mxCell>
        <mxCell id="-Lwdjivc8dsp_Cb2B-uT-81" style="edgeStyle=orthogonalEdgeStyle;html=1;labelBackgroundColor=none;endArrow=open;endSize=8;strokeColor=#ff0000;fontFamily=Verdana;fontSize=12;align=left;exitX=1;exitY=0.5;exitDx=0;exitDy=0;entryX=0;entryY=0.5;entryDx=0;entryDy=0;" edge="1" parent="1" source="-Lwdjivc8dsp_Cb2B-uT-78" target="-Lwdjivc8dsp_Cb2B-uT-70">
          <mxGeometry relative="1" as="geometry">
            <mxPoint x="755" y="580" as="sourcePoint" />
            <mxPoint x="785" y="580" as="targetPoint" />
          </mxGeometry>
        </mxCell>
        <mxCell id="-Lwdjivc8dsp_Cb2B-uT-83" style="edgeStyle=orthogonalEdgeStyle;html=1;labelBackgroundColor=none;endArrow=open;endSize=8;strokeColor=#ff0000;fontFamily=Verdana;fontSize=12;align=left;entryX=0.5;entryY=1;entryDx=0;entryDy=0;exitX=1;exitY=0.5;exitDx=0;exitDy=0;" edge="1" parent="1" source="-Lwdjivc8dsp_Cb2B-uT-73" target="-Lwdjivc8dsp_Cb2B-uT-1">
          <mxGeometry relative="1" as="geometry">
            <mxPoint x="740" y="640" as="sourcePoint" />
            <mxPoint x="740" y="668" as="targetPoint" />
            <Array as="points">
              <mxPoint x="970" y="615" />
              <mxPoint x="970" y="700" />
              <mxPoint x="175" y="700" />
            </Array>
          </mxGeometry>
        </mxCell>
        <mxCell id="-Lwdjivc8dsp_Cb2B-uT-84" value="Payment retry" style="text;html=1;align=center;verticalAlign=middle;whiteSpace=wrap;rounded=0;fontSize=10;" vertex="1" parent="1">
          <mxGeometry x="740" y="590" width="50" height="20" as="geometry" />
        </mxCell>
        <mxCell id="-Lwdjivc8dsp_Cb2B-uT-85" value="" style="ellipse;html=1;shape=endState;fillColor=#000000;strokeColor=#ff0000;" vertex="1" parent="1">
          <mxGeometry x="845" y="660" width="30" height="30" as="geometry" />
        </mxCell>
        <mxCell id="-Lwdjivc8dsp_Cb2B-uT-86" value="" style="ellipse;html=1;shape=startState;fillColor=#000000;strokeColor=#ff0000;rounded=1;shadow=0;comic=0;labelBackgroundColor=none;fontFamily=Verdana;fontSize=12;fontColor=#000000;align=center;direction=south;" vertex="1" parent="1">
          <mxGeometry x="80" y="920" width="30" height="30" as="geometry" />
        </mxCell>
        <mxCell id="-Lwdjivc8dsp_Cb2B-uT-87" value="Customer" style="text;align=center;fontStyle=1;verticalAlign=middle;spacingLeft=3;spacingRight=3;strokeColor=none;rotatable=0;points=[[0,0.5],[1,0.5]];portConstraint=eastwest;html=1;" vertex="1" parent="1">
          <mxGeometry x="55" y="219" width="80" height="26" as="geometry" />
        </mxCell>
        <mxCell id="-Lwdjivc8dsp_Cb2B-uT-139" style="edgeStyle=orthogonalEdgeStyle;rounded=0;orthogonalLoop=1;jettySize=auto;html=1;exitX=0.5;exitY=0;exitDx=0;exitDy=0;entryX=1;entryY=0.5;entryDx=0;entryDy=0;" edge="1" parent="1" source="-Lwdjivc8dsp_Cb2B-uT-88" target="-Lwdjivc8dsp_Cb2B-uT-133">
          <mxGeometry relative="1" as="geometry">
            <Array as="points">
              <mxPoint x="165" y="780" />
              <mxPoint x="1020" y="780" />
              <mxPoint x="1020" y="1465" />
            </Array>
          </mxGeometry>
        </mxCell>
        <mxCell id="-Lwdjivc8dsp_Cb2B-uT-88" value="" style="rhombus;whiteSpace=wrap;html=1;" vertex="1" parent="1">
          <mxGeometry x="150" y="920" width="30" height="30" as="geometry" />
        </mxCell>
        <mxCell id="-Lwdjivc8dsp_Cb2B-uT-89" style="edgeStyle=orthogonalEdgeStyle;html=1;labelBackgroundColor=none;endArrow=open;endSize=8;strokeColor=#ff0000;fontFamily=Verdana;fontSize=12;align=left;exitX=0.5;exitY=0;exitDx=0;exitDy=0;entryX=0;entryY=0.5;entryDx=0;entryDy=0;" edge="1" parent="1" source="-Lwdjivc8dsp_Cb2B-uT-86" target="-Lwdjivc8dsp_Cb2B-uT-88">
          <mxGeometry relative="1" as="geometry">
            <mxPoint x="270" y="934.6600000000001" as="sourcePoint" />
            <mxPoint x="320" y="934.6600000000001" as="targetPoint" />
          </mxGeometry>
        </mxCell>
        <mxCell id="-Lwdjivc8dsp_Cb2B-uT-90" value="&lt;b&gt;Login&lt;/b&gt;" style="html=1;whiteSpace=wrap;" vertex="1" parent="1">
          <mxGeometry x="220" y="915" width="100" height="40" as="geometry" />
        </mxCell>
        <mxCell id="-Lwdjivc8dsp_Cb2B-uT-92" value="&lt;strong data-sourcepos=&quot;3:1-3:9&quot;&gt;Event list&lt;/strong&gt;" style="html=1;whiteSpace=wrap;" vertex="1" parent="1">
          <mxGeometry x="470" y="915" width="100" height="40" as="geometry" />
        </mxCell>
        <mxCell id="-Lwdjivc8dsp_Cb2B-uT-93" value="" style="rhombus;whiteSpace=wrap;html=1;" vertex="1" parent="1">
          <mxGeometry x="370" y="920" width="30" height="30" as="geometry" />
        </mxCell>
        <mxCell id="-Lwdjivc8dsp_Cb2B-uT-94" style="edgeStyle=orthogonalEdgeStyle;html=1;labelBackgroundColor=none;endArrow=open;endSize=8;strokeColor=#ff0000;fontFamily=Verdana;fontSize=12;align=left;exitX=1;exitY=0.5;exitDx=0;exitDy=0;entryX=0;entryY=0.5;entryDx=0;entryDy=0;" edge="1" parent="1" source="-Lwdjivc8dsp_Cb2B-uT-88" target="-Lwdjivc8dsp_Cb2B-uT-90">
          <mxGeometry relative="1" as="geometry">
            <mxPoint x="230" y="1000" as="sourcePoint" />
            <mxPoint x="270" y="1000" as="targetPoint" />
          </mxGeometry>
        </mxCell>
        <mxCell id="-Lwdjivc8dsp_Cb2B-uT-95" style="edgeStyle=orthogonalEdgeStyle;html=1;labelBackgroundColor=none;endArrow=open;endSize=8;strokeColor=#ff0000;fontFamily=Verdana;fontSize=12;align=left;exitX=1;exitY=0.5;exitDx=0;exitDy=0;entryX=0;entryY=0.5;entryDx=0;entryDy=0;" edge="1" parent="1" source="-Lwdjivc8dsp_Cb2B-uT-90" target="-Lwdjivc8dsp_Cb2B-uT-93">
          <mxGeometry relative="1" as="geometry">
            <mxPoint x="370" y="980" as="sourcePoint" />
            <mxPoint x="420" y="980" as="targetPoint" />
          </mxGeometry>
        </mxCell>
        <mxCell id="-Lwdjivc8dsp_Cb2B-uT-96" value="Sucessfull" style="text;html=1;align=center;verticalAlign=middle;whiteSpace=wrap;rounded=0;fontSize=10;" vertex="1" parent="1">
          <mxGeometry x="320" y="910" width="50" height="20" as="geometry" />
        </mxCell>
        <mxCell id="-Lwdjivc8dsp_Cb2B-uT-97" style="edgeStyle=orthogonalEdgeStyle;html=1;labelBackgroundColor=none;endArrow=open;endSize=8;strokeColor=#ff0000;fontFamily=Verdana;fontSize=12;align=left;exitX=0.5;exitY=1;exitDx=0;exitDy=0;entryX=0.5;entryY=1;entryDx=0;entryDy=0;" edge="1" parent="1" source="-Lwdjivc8dsp_Cb2B-uT-93" target="-Lwdjivc8dsp_Cb2B-uT-88">
          <mxGeometry relative="1" as="geometry">
            <mxPoint x="430" y="990" as="sourcePoint" />
            <mxPoint x="480" y="990" as="targetPoint" />
            <Array as="points">
              <mxPoint x="385" y="990" />
              <mxPoint x="165" y="990" />
            </Array>
          </mxGeometry>
        </mxCell>
        <mxCell id="-Lwdjivc8dsp_Cb2B-uT-98" style="edgeStyle=orthogonalEdgeStyle;html=1;labelBackgroundColor=none;endArrow=open;endSize=8;strokeColor=#ff0000;fontFamily=Verdana;fontSize=12;align=left;exitX=1;exitY=0.5;exitDx=0;exitDy=0;entryX=0;entryY=0.5;entryDx=0;entryDy=0;" edge="1" parent="1" source="-Lwdjivc8dsp_Cb2B-uT-93" target="-Lwdjivc8dsp_Cb2B-uT-92">
          <mxGeometry relative="1" as="geometry">
            <mxPoint x="460" y="970" as="sourcePoint" />
            <mxPoint x="510" y="970" as="targetPoint" />
          </mxGeometry>
        </mxCell>
        <mxCell id="-Lwdjivc8dsp_Cb2B-uT-99" value="browse" style="text;html=1;align=center;verticalAlign=middle;whiteSpace=wrap;rounded=0;fontSize=10;" vertex="1" parent="1">
          <mxGeometry x="400" y="910" width="50" height="20" as="geometry" />
        </mxCell>
        <mxCell id="-Lwdjivc8dsp_Cb2B-uT-101" value="&lt;strong data-sourcepos=&quot;3:1-3:9&quot;&gt;Search event&lt;/strong&gt;" style="html=1;whiteSpace=wrap;" vertex="1" parent="1">
          <mxGeometry x="470" y="980" width="100" height="40" as="geometry" />
        </mxCell>
        <mxCell id="-Lwdjivc8dsp_Cb2B-uT-102" value="&lt;strong data-sourcepos=&quot;3:1-3:9&quot;&gt;Add event&lt;/strong&gt;" style="html=1;whiteSpace=wrap;" vertex="1" parent="1">
          <mxGeometry x="470" y="1050" width="100" height="40" as="geometry" />
        </mxCell>
        <mxCell id="-Lwdjivc8dsp_Cb2B-uT-103" style="edgeStyle=orthogonalEdgeStyle;html=1;labelBackgroundColor=none;endArrow=open;endSize=8;strokeColor=#ff0000;fontFamily=Verdana;fontSize=12;align=left;exitX=1;exitY=0.5;exitDx=0;exitDy=0;entryX=0;entryY=0.5;entryDx=0;entryDy=0;" edge="1" parent="1" source="-Lwdjivc8dsp_Cb2B-uT-93" target="-Lwdjivc8dsp_Cb2B-uT-101">
          <mxGeometry relative="1" as="geometry">
            <mxPoint x="390" y="1105" as="sourcePoint" />
            <mxPoint x="435" y="1070" as="targetPoint" />
          </mxGeometry>
        </mxCell>
        <mxCell id="-Lwdjivc8dsp_Cb2B-uT-104" value="search" style="text;html=1;align=center;verticalAlign=middle;whiteSpace=wrap;rounded=0;fontSize=10;" vertex="1" parent="1">
          <mxGeometry x="430" y="960" width="50" height="20" as="geometry" />
        </mxCell>
        <mxCell id="-Lwdjivc8dsp_Cb2B-uT-105" style="edgeStyle=orthogonalEdgeStyle;html=1;labelBackgroundColor=none;endArrow=open;endSize=8;strokeColor=#ff0000;fontFamily=Verdana;fontSize=12;align=left;exitX=1;exitY=0.5;exitDx=0;exitDy=0;entryX=0;entryY=0.5;entryDx=0;entryDy=0;" edge="1" parent="1" source="-Lwdjivc8dsp_Cb2B-uT-93" target="-Lwdjivc8dsp_Cb2B-uT-102">
          <mxGeometry relative="1" as="geometry">
            <mxPoint x="390" y="1130" as="sourcePoint" />
            <mxPoint x="460" y="1195" as="targetPoint" />
          </mxGeometry>
        </mxCell>
        <mxCell id="-Lwdjivc8dsp_Cb2B-uT-106" value="Create new" style="text;html=1;align=center;verticalAlign=middle;whiteSpace=wrap;rounded=0;fontSize=10;" vertex="1" parent="1">
          <mxGeometry x="390" y="1050" width="50" height="20" as="geometry" />
        </mxCell>
        <mxCell id="-Lwdjivc8dsp_Cb2B-uT-119" style="edgeStyle=orthogonalEdgeStyle;rounded=0;orthogonalLoop=1;jettySize=auto;html=1;exitX=0.5;exitY=0;exitDx=0;exitDy=0;" edge="1" parent="1" source="-Lwdjivc8dsp_Cb2B-uT-108">
          <mxGeometry relative="1" as="geometry">
            <mxPoint x="769.8620689655172" y="820" as="targetPoint" />
          </mxGeometry>
        </mxCell>
        <mxCell id="-Lwdjivc8dsp_Cb2B-uT-108" value="&lt;strong data-sourcepos=&quot;3:1-3:9&quot;&gt;Viev Event&lt;/strong&gt;" style="html=1;whiteSpace=wrap;" vertex="1" parent="1">
          <mxGeometry x="720" y="945" width="100" height="40" as="geometry" />
        </mxCell>
        <mxCell id="-Lwdjivc8dsp_Cb2B-uT-109" style="edgeStyle=orthogonalEdgeStyle;html=1;labelBackgroundColor=none;endArrow=open;endSize=8;strokeColor=#ff0000;fontFamily=Verdana;fontSize=12;align=left;entryX=0.5;entryY=0;entryDx=0;entryDy=0;exitX=1;exitY=0.5;exitDx=0;exitDy=0;" edge="1" parent="1" source="-Lwdjivc8dsp_Cb2B-uT-92" target="-Lwdjivc8dsp_Cb2B-uT-111">
          <mxGeometry relative="1" as="geometry">
            <mxPoint x="460" y="915" as="sourcePoint" />
            <mxPoint x="690" y="915" as="targetPoint" />
          </mxGeometry>
        </mxCell>
        <mxCell id="-Lwdjivc8dsp_Cb2B-uT-110" style="edgeStyle=orthogonalEdgeStyle;html=1;labelBackgroundColor=none;endArrow=open;endSize=8;strokeColor=#ff0000;fontFamily=Verdana;fontSize=12;align=left;exitX=1;exitY=0.5;exitDx=0;exitDy=0;entryX=0.5;entryY=1;entryDx=0;entryDy=0;" edge="1" parent="1" source="-Lwdjivc8dsp_Cb2B-uT-101" target="-Lwdjivc8dsp_Cb2B-uT-111">
          <mxGeometry relative="1" as="geometry">
            <mxPoint x="560" y="1027.5" as="sourcePoint" />
            <mxPoint x="682.5" y="1000" as="targetPoint" />
            <Array as="points">
              <mxPoint x="685" y="1000" />
            </Array>
          </mxGeometry>
        </mxCell>
        <mxCell id="-Lwdjivc8dsp_Cb2B-uT-111" value="" style="rhombus;whiteSpace=wrap;html=1;" vertex="1" parent="1">
          <mxGeometry x="670" y="950" width="30" height="30" as="geometry" />
        </mxCell>
        <mxCell id="-Lwdjivc8dsp_Cb2B-uT-112" style="edgeStyle=orthogonalEdgeStyle;rounded=0;orthogonalLoop=1;jettySize=auto;html=1;endArrow=open;endFill=0;strokeColor=light-dark(#000000,#FF6666);exitX=1;exitY=0.5;exitDx=0;exitDy=0;" edge="1" parent="1" source="-Lwdjivc8dsp_Cb2B-uT-111" target="-Lwdjivc8dsp_Cb2B-uT-108">
          <mxGeometry relative="1" as="geometry">
            <mxPoint x="720" y="960" as="sourcePoint" />
            <mxPoint x="750" y="960" as="targetPoint" />
          </mxGeometry>
        </mxCell>
        <mxCell id="-Lwdjivc8dsp_Cb2B-uT-118" style="edgeStyle=orthogonalEdgeStyle;rounded=0;orthogonalLoop=1;jettySize=auto;html=1;exitX=1;exitY=0.5;exitDx=0;exitDy=0;entryX=0.5;entryY=0;entryDx=0;entryDy=0;" edge="1" parent="1" source="-Lwdjivc8dsp_Cb2B-uT-113" target="-Lwdjivc8dsp_Cb2B-uT-93">
          <mxGeometry relative="1" as="geometry">
            <Array as="points">
              <mxPoint x="990" y="1070" />
              <mxPoint x="990" y="820" />
              <mxPoint x="385" y="820" />
            </Array>
          </mxGeometry>
        </mxCell>
        <mxCell id="-Lwdjivc8dsp_Cb2B-uT-113" value="" style="rhombus;whiteSpace=wrap;html=1;" vertex="1" parent="1">
          <mxGeometry x="755" y="1055" width="30" height="30" as="geometry" />
        </mxCell>
        <mxCell id="-Lwdjivc8dsp_Cb2B-uT-114" style="edgeStyle=orthogonalEdgeStyle;html=1;labelBackgroundColor=none;endArrow=open;endSize=8;strokeColor=#ff0000;fontFamily=Verdana;fontSize=12;align=left;exitX=0.5;exitY=1;exitDx=0;exitDy=0;entryX=0.5;entryY=0;entryDx=0;entryDy=0;" edge="1" parent="1" source="-Lwdjivc8dsp_Cb2B-uT-108" target="-Lwdjivc8dsp_Cb2B-uT-113">
          <mxGeometry relative="1" as="geometry">
            <mxPoint x="620" y="1079.98" as="sourcePoint" />
            <mxPoint x="770" y="1030" as="targetPoint" />
            <Array as="points" />
          </mxGeometry>
        </mxCell>
        <mxCell id="-Lwdjivc8dsp_Cb2B-uT-115" style="edgeStyle=orthogonalEdgeStyle;html=1;labelBackgroundColor=none;endArrow=open;endSize=8;strokeColor=#ff0000;fontFamily=Verdana;fontSize=12;align=left;exitX=1;exitY=0.5;exitDx=0;exitDy=0;entryX=0;entryY=0.5;entryDx=0;entryDy=0;" edge="1" parent="1" source="-Lwdjivc8dsp_Cb2B-uT-102" target="-Lwdjivc8dsp_Cb2B-uT-113">
          <mxGeometry relative="1" as="geometry">
            <mxPoint x="580" y="1010" as="sourcePoint" />
            <mxPoint x="695" y="990" as="targetPoint" />
            <Array as="points">
              <mxPoint x="570" y="1060" />
              <mxPoint x="755" y="1060" />
            </Array>
          </mxGeometry>
        </mxCell>
        <mxCell id="-Lwdjivc8dsp_Cb2B-uT-116" value="&lt;b&gt;Configure Event&lt;/b&gt;" style="html=1;whiteSpace=wrap;" vertex="1" parent="1">
          <mxGeometry x="720" y="1140" width="100" height="40" as="geometry" />
        </mxCell>
        <mxCell id="-Lwdjivc8dsp_Cb2B-uT-117" style="edgeStyle=orthogonalEdgeStyle;html=1;labelBackgroundColor=none;endArrow=open;endSize=8;strokeColor=#ff0000;fontFamily=Verdana;fontSize=12;align=left;exitX=0.5;exitY=1;exitDx=0;exitDy=0;entryX=0.5;entryY=0;entryDx=0;entryDy=0;" edge="1" parent="1" source="-Lwdjivc8dsp_Cb2B-uT-113" target="-Lwdjivc8dsp_Cb2B-uT-116">
          <mxGeometry relative="1" as="geometry">
            <mxPoint x="855" y="1139.97" as="sourcePoint" />
            <mxPoint x="970" y="1119.97" as="targetPoint" />
            <Array as="points">
              <mxPoint x="770" y="1120" />
              <mxPoint x="770" y="1120" />
            </Array>
          </mxGeometry>
        </mxCell>
        <mxCell id="-Lwdjivc8dsp_Cb2B-uT-120" value="Skip" style="text;html=1;align=center;verticalAlign=middle;whiteSpace=wrap;rounded=0;fontSize=10;" vertex="1" parent="1">
          <mxGeometry x="680" y="800" width="50" height="20" as="geometry" />
        </mxCell>
        <mxCell id="-Lwdjivc8dsp_Cb2B-uT-121" style="edgeStyle=orthogonalEdgeStyle;html=1;labelBackgroundColor=none;endArrow=open;endSize=8;strokeColor=#ff0000;fontFamily=Verdana;fontSize=12;align=left;" edge="1" parent="1" source="-Lwdjivc8dsp_Cb2B-uT-116">
          <mxGeometry relative="1" as="geometry">
            <mxPoint x="769.66" y="1200" as="sourcePoint" />
            <mxPoint x="770" y="1220" as="targetPoint" />
            <Array as="points" />
          </mxGeometry>
        </mxCell>
        <mxCell id="-Lwdjivc8dsp_Cb2B-uT-122" value="&lt;b&gt;Configure ticket&lt;/b&gt;" style="html=1;whiteSpace=wrap;" vertex="1" parent="1">
          <mxGeometry x="720" y="1220" width="100" height="40" as="geometry" />
        </mxCell>
        <mxCell id="-Lwdjivc8dsp_Cb2B-uT-123" value="&lt;b&gt;View\update Event&lt;/b&gt;" style="html=1;whiteSpace=wrap;" vertex="1" parent="1">
          <mxGeometry x="720" y="1300" width="100" height="40" as="geometry" />
        </mxCell>
        <mxCell id="-Lwdjivc8dsp_Cb2B-uT-124" style="edgeStyle=orthogonalEdgeStyle;html=1;labelBackgroundColor=none;endArrow=open;endSize=8;strokeColor=#ff0000;fontFamily=Verdana;fontSize=12;align=left;exitX=0.5;exitY=1;exitDx=0;exitDy=0;entryX=0.5;entryY=0;entryDx=0;entryDy=0;" edge="1" parent="1" source="-Lwdjivc8dsp_Cb2B-uT-122" target="-Lwdjivc8dsp_Cb2B-uT-123">
          <mxGeometry relative="1" as="geometry">
            <mxPoint x="870" y="1300" as="sourcePoint" />
            <mxPoint x="870" y="1340" as="targetPoint" />
            <Array as="points" />
          </mxGeometry>
        </mxCell>
        <mxCell id="-Lwdjivc8dsp_Cb2B-uT-125" value="" style="rhombus;whiteSpace=wrap;html=1;" vertex="1" parent="1">
          <mxGeometry x="630" y="1305" width="30" height="30" as="geometry" />
        </mxCell>
        <mxCell id="-Lwdjivc8dsp_Cb2B-uT-126" style="edgeStyle=orthogonalEdgeStyle;html=1;labelBackgroundColor=none;endArrow=open;endSize=8;strokeColor=#ff0000;fontFamily=Verdana;fontSize=12;align=left;entryX=1;entryY=0.5;entryDx=0;entryDy=0;" edge="1" parent="1" source="-Lwdjivc8dsp_Cb2B-uT-123" target="-Lwdjivc8dsp_Cb2B-uT-125">
          <mxGeometry relative="1" as="geometry">
            <mxPoint x="684.66" y="1380" as="sourcePoint" />
            <mxPoint x="684.66" y="1420" as="targetPoint" />
            <Array as="points" />
          </mxGeometry>
        </mxCell>
        <mxCell id="-Lwdjivc8dsp_Cb2B-uT-127" style="edgeStyle=orthogonalEdgeStyle;html=1;labelBackgroundColor=none;endArrow=open;endSize=8;strokeColor=#ff0000;fontFamily=Verdana;fontSize=12;align=left;entryX=0.5;entryY=1;entryDx=0;entryDy=0;exitX=0;exitY=0.5;exitDx=0;exitDy=0;" edge="1" parent="1" source="-Lwdjivc8dsp_Cb2B-uT-125" target="-Lwdjivc8dsp_Cb2B-uT-93">
          <mxGeometry relative="1" as="geometry">
            <mxPoint x="590" y="1350" as="sourcePoint" />
            <mxPoint x="530" y="1350" as="targetPoint" />
            <Array as="points">
              <mxPoint x="385" y="1320" />
            </Array>
          </mxGeometry>
        </mxCell>
        <mxCell id="-Lwdjivc8dsp_Cb2B-uT-128" value="Cancel" style="text;html=1;align=center;verticalAlign=middle;whiteSpace=wrap;rounded=0;fontSize=10;" vertex="1" parent="1">
          <mxGeometry x="560" y="1300" width="50" height="20" as="geometry" />
        </mxCell>
        <mxCell id="-Lwdjivc8dsp_Cb2B-uT-137" style="edgeStyle=orthogonalEdgeStyle;rounded=0;orthogonalLoop=1;jettySize=auto;html=1;exitX=0;exitY=0.5;exitDx=0;exitDy=0;entryX=0;entryY=0.5;entryDx=0;entryDy=0;" edge="1" parent="1" source="-Lwdjivc8dsp_Cb2B-uT-130" target="-Lwdjivc8dsp_Cb2B-uT-113">
          <mxGeometry relative="1" as="geometry">
            <Array as="points">
              <mxPoint x="540" y="1400" />
              <mxPoint x="540" y="1150" />
              <mxPoint x="650" y="1150" />
              <mxPoint x="650" y="1070" />
            </Array>
          </mxGeometry>
        </mxCell>
        <mxCell id="-Lwdjivc8dsp_Cb2B-uT-130" value="&lt;b&gt;Approve creation&lt;/b&gt;" style="html=1;whiteSpace=wrap;" vertex="1" parent="1">
          <mxGeometry x="595" y="1380" width="100" height="40" as="geometry" />
        </mxCell>
        <mxCell id="-Lwdjivc8dsp_Cb2B-uT-131" style="edgeStyle=orthogonalEdgeStyle;html=1;labelBackgroundColor=none;endArrow=open;endSize=8;strokeColor=#ff0000;fontFamily=Verdana;fontSize=12;align=left;entryX=0.5;entryY=0;entryDx=0;entryDy=0;exitX=0.5;exitY=1;exitDx=0;exitDy=0;" edge="1" parent="1" source="-Lwdjivc8dsp_Cb2B-uT-125" target="-Lwdjivc8dsp_Cb2B-uT-130">
          <mxGeometry relative="1" as="geometry">
            <mxPoint x="740" y="1380" as="sourcePoint" />
            <mxPoint x="680" y="1380" as="targetPoint" />
            <Array as="points" />
          </mxGeometry>
        </mxCell>
        <mxCell id="-Lwdjivc8dsp_Cb2B-uT-132" value="" style="ellipse;html=1;shape=endState;fillColor=#000000;strokeColor=#ff0000;" vertex="1" parent="1">
          <mxGeometry x="630" y="1510" width="30" height="30" as="geometry" />
        </mxCell>
        <mxCell id="-Lwdjivc8dsp_Cb2B-uT-133" value="" style="rhombus;whiteSpace=wrap;html=1;" vertex="1" parent="1">
          <mxGeometry x="630" y="1450" width="30" height="30" as="geometry" />
        </mxCell>
        <mxCell id="-Lwdjivc8dsp_Cb2B-uT-134" style="edgeStyle=orthogonalEdgeStyle;html=1;labelBackgroundColor=none;endArrow=open;endSize=8;strokeColor=#ff0000;fontFamily=Verdana;fontSize=12;align=left;entryX=0.5;entryY=0;entryDx=0;entryDy=0;exitX=0.5;exitY=1;exitDx=0;exitDy=0;" edge="1" parent="1" source="-Lwdjivc8dsp_Cb2B-uT-130" target="-Lwdjivc8dsp_Cb2B-uT-133">
          <mxGeometry relative="1" as="geometry">
            <mxPoint x="719.31" y="1460" as="sourcePoint" />
            <mxPoint x="719.31" y="1505" as="targetPoint" />
            <Array as="points" />
          </mxGeometry>
        </mxCell>
        <mxCell id="-Lwdjivc8dsp_Cb2B-uT-135" style="edgeStyle=orthogonalEdgeStyle;html=1;labelBackgroundColor=none;endArrow=open;endSize=8;strokeColor=#ff0000;fontFamily=Verdana;fontSize=12;align=left;exitX=0.5;exitY=1;exitDx=0;exitDy=0;" edge="1" parent="1" source="-Lwdjivc8dsp_Cb2B-uT-133" target="-Lwdjivc8dsp_Cb2B-uT-132">
          <mxGeometry relative="1" as="geometry">
            <mxPoint x="729.31" y="1510" as="sourcePoint" />
            <mxPoint x="729.31" y="1540" as="targetPoint" />
            <Array as="points" />
          </mxGeometry>
        </mxCell>
        <mxCell id="-Lwdjivc8dsp_Cb2B-uT-136" style="edgeStyle=orthogonalEdgeStyle;html=1;labelBackgroundColor=none;endArrow=open;endSize=8;strokeColor=#ff0000;fontFamily=Verdana;fontSize=12;align=left;exitX=0;exitY=0.5;exitDx=0;exitDy=0;entryX=0.5;entryY=1;entryDx=0;entryDy=0;" edge="1" parent="1" source="-Lwdjivc8dsp_Cb2B-uT-133" target="-Lwdjivc8dsp_Cb2B-uT-93">
          <mxGeometry relative="1" as="geometry">
            <mxPoint x="560" y="1480" as="sourcePoint" />
            <mxPoint x="410" y="980" as="targetPoint" />
            <Array as="points" />
          </mxGeometry>
        </mxCell>
        <mxCell id="-Lwdjivc8dsp_Cb2B-uT-138" value="return to edition" style="text;html=1;align=center;verticalAlign=middle;whiteSpace=wrap;rounded=0;fontSize=10;" vertex="1" parent="1">
          <mxGeometry x="490" y="1360" width="50" height="20" as="geometry" />
        </mxCell>
        <mxCell id="-Lwdjivc8dsp_Cb2B-uT-140" value="Manager" style="text;align=center;fontStyle=1;verticalAlign=middle;spacingLeft=3;spacingRight=3;strokeColor=none;rotatable=0;points=[[0,0.5],[1,0.5]];portConstraint=eastwest;html=1;" vertex="1" parent="1">
          <mxGeometry x="55" y="889" width="80" height="26" as="geometry" />
        </mxCell>
      </root>
    </mxGraphModel>
  </diagram>
</mxfile>
